<svg width="24" height="24" viewBox="0 0 24 24" fill="none" xmlns="http://www.w3.org/2000/svg">
<path d="M10.6518 4.42636C10.3788 4.15336 10.0084 4 9.6223 4C9.23617 4 8.86584 4.15336 8.59276 4.42636L2.03986 10.9793C1.76687 11.2523 1.61351 11.6227 1.61351 12.0088C1.61351 12.3949 1.76687 12.7652 2.03986 13.0383L8.59276 19.5912C8.86741 19.8565 9.23524 20.0033 9.61706 19.9999C9.99887 19.9966 10.3641 19.8435 10.6341 19.5735C10.9041 19.3035 11.0572 18.9383 11.0605 18.5565C11.0639 18.1746 10.9171 17.8068 10.6518 17.5322L6.7099 13.465H20.5438C20.93 13.465 21.3004 13.3116 21.5735 13.0385C21.8466 12.7654 22 12.395 22 12.0088C22 11.6226 21.8466 11.2522 21.5735 10.9791C21.3004 10.706 20.93 10.5526 20.5438 10.5526H6.7099L10.6518 6.48542C10.9248 6.21235 11.0782 5.84202 11.0782 5.45589C11.0782 5.06976 10.9248 4.69943 10.6518 4.42636Z" fill="white" style="fill:white;fill-opacity:1;"/>
</svg>
