<svg width="24" height="24" viewBox="0 0 24 24" fill="none" xmlns="http://www.w3.org/2000/svg">
<path d="M20 13.75C20 13.5511 19.921 13.3603 19.7803 13.2197C19.6397 13.079 19.4489 13 19.25 13H16.25C16.0511 13 15.8603 13.079 15.7197 13.2197C15.579 13.3603 15.5 13.5511 15.5 13.75V20.5H14V4.25002C14 3.52202 13.998 3.05002 13.952 2.70402C13.908 2.37902 13.837 2.27702 13.78 2.22002C13.723 2.16302 13.621 2.09202 13.296 2.04802C12.949 2.00202 12.478 2.00002 11.75 2.00002C11.022 2.00002 10.55 2.00202 10.204 2.04802C9.87901 2.09202 9.77701 2.16302 9.72001 2.22002C9.66301 2.27702 9.59201 2.37902 9.54801 2.70402C9.50201 3.05102 9.50001 3.52202 9.50001 4.25002V20.5H8.00001V8.75002C8.00001 8.5511 7.92099 8.36034 7.78034 8.21969C7.63969 8.07903 7.44892 8.00002 7.25001 8.00002H4.25001C4.0511 8.00002 3.86033 8.07903 3.71968 8.21969C3.57903 8.36034 3.50001 8.5511 3.50001 8.75002V20.5H1.75001C1.5511 20.5 1.36033 20.579 1.21968 20.7197C1.07903 20.8603 1.00001 21.0511 1.00001 21.25C1.00001 21.4489 1.07903 21.6397 1.21968 21.7803C1.36033 21.921 1.5511 22 1.75001 22H21.75C21.9489 22 22.1397 21.921 22.2803 21.7803C22.421 21.6397 22.5 21.4489 22.5 21.25C22.5 21.0511 22.421 20.8603 22.2803 20.7197C22.1397 20.579 21.9489 20.5 21.75 20.5H20V13.75Z" fill="white" style="fill:white;fill-opacity:1;"/>
</svg>
