<svg width="24" height="24" viewBox="0 0 24 24" fill="none" xmlns="http://www.w3.org/2000/svg">
<path d="M11.992 14.65C11.4669 14.6505 10.9536 14.4949 10.517 14.2032C10.0805 13.9114 9.74049 13.4965 9.54014 13.0112C9.33979 12.5258 9.28814 11.9919 9.39173 11.4772C9.49533 10.9624 9.7495 10.4901 10.122 10.12C10.1923 10.0504 10.2755 9.99532 10.3671 9.9579C10.4586 9.92049 10.5566 9.90147 10.6555 9.90193C10.7544 9.9024 10.8523 9.92234 10.9435 9.96061C11.0346 9.99888 11.1174 10.0547 11.187 10.125C11.2566 10.1953 11.3117 10.2785 11.3491 10.3701C11.3865 10.4616 11.4055 10.5596 11.4051 10.6585C11.4046 10.7574 11.3847 10.8553 11.3464 10.9465C11.3081 11.0376 11.2523 11.1204 11.182 11.19C11.0741 11.2955 10.9885 11.4215 10.9301 11.5606C10.8717 11.6997 10.8417 11.8491 10.842 12C10.8287 12.2375 10.89 12.4732 11.0174 12.6741C11.1448 12.875 11.3318 13.0311 11.5523 13.1204C11.7728 13.2097 12.0157 13.2277 12.2469 13.1721C12.4782 13.1164 12.6863 12.9898 12.842 12.81C12.9843 12.6689 13.1766 12.5898 13.377 12.5898C13.5774 12.5898 13.7697 12.6689 13.912 12.81C14.0507 12.9536 14.1282 13.1454 14.1282 13.345C14.1282 13.5446 14.0507 13.7364 13.912 13.88C13.6593 14.1296 13.3593 14.3263 13.0296 14.4585C12.6999 14.5907 12.3472 14.6558 11.992 14.65Z" fill="white" style="fill:white;fill-opacity:1;"/>
<path d="M22.242 12C22.242 14.7185 21.1621 17.3256 19.2398 19.2478C17.3176 21.1701 14.7105 22.25 11.992 22.25C9.27353 22.25 6.6664 21.1701 4.74416 19.2478C2.82191 17.3256 1.742 14.7185 1.742 12C1.742 9.28153 2.82191 6.6744 4.74416 4.75216C6.6664 2.82991 9.27353 1.75 11.992 1.75C12.1909 1.75 12.3817 1.82902 12.5223 1.96967C12.663 2.11032 12.742 2.30109 12.742 2.5V6.3C12.7394 6.49811 12.6596 6.68737 12.5195 6.82747C12.3794 6.96756 12.1901 7.04741 11.992 7.05C11.0126 7.04326 10.0541 7.33257 9.242 7.88C8.42533 8.42125 7.78844 9.19356 7.41263 10.0984C7.03682 11.0032 6.93912 11.9994 7.132 12.96C7.44569 14.0996 8.15294 15.0912 9.12825 15.7589C10.1036 16.4265 11.2839 16.7271 12.4598 16.6073C13.6356 16.4874 14.731 15.9548 15.5516 15.1041C16.3721 14.2534 16.8647 13.1394 16.942 11.96C16.9407 11.8611 16.9591 11.763 16.9964 11.6714C17.0336 11.5798 17.0888 11.4966 17.1587 11.4267C17.2286 11.3568 17.3118 11.3016 17.4034 11.2643C17.495 11.2271 17.5931 11.2087 17.692 11.21H21.492C21.594 11.2099 21.6949 11.2305 21.7886 11.2707C21.8823 11.3108 21.9668 11.3697 22.037 11.4436C22.1072 11.5176 22.1616 11.605 22.1968 11.7007C22.2321 11.7964 22.2474 11.8982 22.242 12Z" fill="white" style="fill:white;fill-opacity:1;"/>
<path d="M21.882 6.13C21.8559 6.32456 21.7763 6.50804 21.652 6.66L19.482 8.83C19.1734 9.13985 18.7916 9.36685 18.372 9.49C18.1258 9.56559 17.8695 9.60269 17.612 9.6C17.4357 9.61564 17.2583 9.61564 17.082 9.6L15.752 9.34L13.472 11.63C13.3286 11.7664 13.1398 11.8447 12.942 11.85C12.7432 11.8498 12.5525 11.7707 12.412 11.63C12.3412 11.5611 12.285 11.4786 12.2466 11.3876C12.2082 11.2966 12.1884 11.1988 12.1884 11.1C12.1884 11.0012 12.2082 10.9034 12.2466 10.8124C12.285 10.7214 12.3412 10.6389 12.412 10.57L14.702 8.27L14.432 6.95C14.3513 6.52454 14.3719 6.08605 14.492 5.67C14.6151 5.25038 14.8422 4.86861 15.152 4.56L17.302 2.41C17.4497 2.27561 17.6343 2.18854 17.832 2.16C18.017 2.1332 18.2057 2.16466 18.372 2.25C18.537 2.33393 18.6755 2.46202 18.772 2.62C18.8697 2.79678 18.9115 2.99899 18.892 3.2L18.572 5.46L20.822 5.15C21.0103 5.13152 21.1999 5.17031 21.3658 5.2613C21.5317 5.3523 21.6663 5.49126 21.752 5.66C21.8335 5.80354 21.8781 5.96501 21.882 6.13Z" fill="white" style="fill:white;fill-opacity:1;"/>
</svg>
